<?xml version="1.0" encoding="utf-8" standalone="no"?>
<svg	version="1.1"
		baseProfile="full"
		xmlns="http://www.w3.org/2000/svg"
		xmlns:xlink="http://www.w3.org/1999/xlink"
		xmlns:ev="http://www.w3.org/2001/xml-events"
		>
	<polygon 
		fill="#FFFFFF"
		stroke="#555555"
		stroke-width="1px" 
		points="
				9.34,102.16
				8.08,103.56 6.86,103.62 6.59,104 7.94,104.19 7.85,104.59 8.31,105.28 8.59,107.38 8.39,108.97 13.32,119.63 12.21,121.55 12.61,123.55 12.28,126.6 12.51,126.97 12.27,127.21 12.28,128 12.74,129.12 13.28,129.45 13.25,130.59 12.45,131.42 12.6,131.88 13.01,131.88 13.43,132.35 13.32,134.98 15.23,136.84 15.6,136.89 15.23,141.76 15.41,142.83 14.63,144.1 14.91,144.26 14.82,145.09 15.5,145.89 15.75,146.66 15.49,147.19 15.72,147.75 16.27,149.56 16.6,149.83 17.89,150.43 18.12,151.2 18.09,151.93 18.34,153.37 18.3,154.32 18.41,154.79 18.56,154.84 19.32,154.88 19.36,155.81 19.28,156.93 19.13,157.55 19.23,158.52 19.43,159.07 19.45,160.13 20.56,162.53 20.91,163.82 20.97,164.59 20.83,165.73 20.59,166.31 21.67,167.09 21.89,168.38 22.36,169.62 21.76,171.36 22.3,172.12 22.76,175.01 24.31,175.19 24.31,175.59 24.71,176.35 24.72,176.84 24.18,177.33 23.7,178.05 23.56,178.87 22.81,179.65 21.85,180.91 21.76,182.19 21.35,182.71 19.73,183.31 19.02,186.69 19.37,188.41 20.41,189.94 19.77,193.43 19.22,194.24 19.05,196.28 18.24,198.5 16.81,200.81 15.21,201.93 14.32,203.06 11.33,205.64 9.71,206.67 7.44,207.65 5.3,208.85 5,209.69 3.67,210.11 3.33,211.33 3.71,212.3 3.61,213.27 4.43,217.43 4.9,218.4 4.7,219.72 2.51,222.68 2.23,223.57 2.29,224.28 2.79,225.19 3.81,225.58 8.68,226.33 9.13,226.76 12.99,231.14 16.17,232.57 16.97,233.23 17.91,233.61 18.71,234.91 19.45,235.33 22.26,239.29 23.26,240.33 23.69,241.54 24.65,241.75 25.38,242.59 25.62,243.53 33.16,248.18 34.82,249.37 
				35.13,249.81
				
				
				
				50.39,443.73
				605.27,651.77
				648.22,99.27
				598.39,53.6
				"/>
</svg>