<?xml version="1.0" encoding="utf-8" standalone="no"?>
<svg	version="1.1"
		baseProfile="full"
		xmlns="http://www.w3.org/2000/svg"
		xmlns:xlink="http://www.w3.org/1999/xlink"
		xmlns:ev="http://www.w3.org/2001/xml-events"
		>
	<polygon 
		fill="#FFFFFF"
		stroke="#555555"
		stroke-width="1px" 
		points="
				9.34,102.16
				8.08,103.56 6.86,103.62 6.59,104 7.94,104.19 7.85,104.59 8.31,105.28 8.59,107.38 8.39,108.97 13.32,119.63 12.21,121.55 12.61,123.55 12.28,126.6 12.51,126.97 12.27,127.21 12.28,128 12.74,129.12 13.28,129.45 13.25,130.59 12.45,131.42 12.6,131.88 13.01,131.88 13.43,132.35 13.32,134.98 15.23,136.84 15.6,136.89 15.23,141.76 15.41,142.83 14.63,144.1 14.91,144.26 14.82,145.09 15.5,145.89 15.75,146.66 15.49,147.19 15.72,147.75 16.27,149.56 16.6,149.83 17.89,150.43 18.12,151.2 18.09,151.93 18.34,153.37 18.3,154.32 18.41,154.79 18.56,154.84 19.32,154.88 19.36,155.81 19.28,156.93 19.13,157.55 19.23,158.52 19.43,159.07 19.45,160.13 20.56,162.53 20.91,163.82 20.97,164.59 20.83,165.73 20.59,166.31 21.67,167.09 21.89,168.38 22.36,169.62 21.76,171.36 22.3,172.12 22.76,175.01 24.31,175.19 24.31,175.59 24.71,176.35 24.72,176.84 24.18,177.33 23.7,178.05 23.56,178.87 22.81,179.65 21.85,180.91 21.76,182.19 21.35,182.71 19.73,183.31 19.02,186.69 19.37,188.41 20.41,189.94 19.77,193.43 19.22,194.24 19.05,196.28 18.24,198.5 16.81,200.81 15.21,201.93 14.32,203.06 11.33,205.64 9.71,206.67 7.44,207.65 5.3,208.85 5,209.69 3.67,210.11 3.33,211.33 3.71,212.3 3.61,213.27 4.43,217.43 4.9,218.4 4.7,219.72 2.51,222.68 2.23,223.57 2.29,224.28 2.79,225.19 3.81,225.58 8.68,226.33 9.13,226.76 12.99,231.14 16.17,232.57 16.97,233.23 17.91,233.61 18.71,234.91 19.45,235.33 22.26,239.29 23.26,240.33 23.69,241.54 24.65,241.75 25.38,242.59 25.62,243.53 33.16,248.18 34.82,249.37 
				35.13,249.81
				35.71,250.87 35.86,251.73 36.16,252.29 37.52,253.22 37.76,253.65 37.69,254.2 36.22,255.47 36.1,255.68 36,256.7 35.44,257.58 35.32,258.3 35.82,259.66 35.93,260.62 37.13,261.39 37.48,262.32 36.68,263.72 35.89,264.34 35.72,265.6 35.01,266.29 34.66,267 34.01,267.51 33.54,268.29 32.2,268.52 31.46,269.28 31.2,270.19 31.39,271.23 30.59,272.87 30.61,273.72 31.71,275.59 31.78,278.31 32.41,279.44 32.57,281.19 33.34,281.46 33.55,282.03 33.54,282.62 34.03,283.45 33.33,284.41 33.28,285.14 34.01,285.72 34.29,286.03 34.56,286.86 36.29,287.23 38.31,288.25 39.23,288.29 40.29,288.72 41.19,288.87 41.99,289.58 42.35,290.52 43.02,291.28 43.03,291.55 42.81,291.98 42.7,293.11 42.41,294.1 41.85,294.79 41.06,295.4 40.91,295.92 41.05,296.36 41.96,297.34 42.28,298.19 42.25,298.97 40.62,301.1 40.5,301.51 40.83,303.65 40.66,304.48 40.83,305.19 42.08,306.73 43.43,307.03 44.83,308.15 45.49,309.55 45.81,309.76 46.04,310.22 45.88,310.84 45.12,311.4 45.19,311.94 45.12,312.34 45.35,312.59 45.37,312.95 45.22,313.4 45.29,314.02 44.73,314.32 44.7,314.45 44.82,314.85 44.78,315 44.34,315.37 44.09,315.77 43.76,316.04 43.74,316.54 43.48,316.83 42.97,317.01 42.93,317.24 43.21,317.58 43.43,318.11 43.27,318.65 43.15,318.83 43.1,319.03 43.09,319.43 42.74,319.85 42.4,319.88 42.28,320.19 42.43,320.49 42.45,321.35 42.9,322.37 43.19,322.46 43.41,322.9 43.27,324.07 42.78,324.65 42.4,324.76 42.18,325.24 42.32,326.13 42.11,326.37 41.85,327.27 41.54,327.52 41.32,327.86 41.57,328.29 41.55,328.54 40.9,328.94 40.6,329.29 40.21,329.34 40.12,329.46 40.24,329.8 40.18,329.91 39.49,329.77 39.4,329.78 39.35,329.9 39.36,330.11 39.29,330.23 38.97,330.41 38.86,330.52 38.79,330.99 38.68,331.12 38.71,331.54 38.69,331.61 38.62,331.71 38.35,331.78 38.24,331.92 38.12,332.38 37.91,332.51 37.49,332.57 37.26,332.91 36.75,333.41 36.63,333.47 35.89,333.47 35.83,333.53 35.74,333.78 35.58,333.96 35.56,334.03 35.61,334.13 35.78,334.28 35.94,334.68 35.92,334.82 35.85,334.91 35.76,334.92 35.62,334.86 35.58,334.61 35.47,334.54 35.32,334.59 35.3,334.68 35.49,335.13 35.48,335.31 35.37,335.45 35.21,335.51 35.1,335.48 34.81,335.21 34.39,335.64 34.54,335.88 34.46,336.18 34.59,336.44 34.58,336.57 34.36,336.89 34.44,337.29 34.39,337.54 34.45,337.66 34.79,337.84 35.12,338.46 35.13,338.88 35.3,339.1 35.36,339.27 35.59,339.45 35.98,339.44 36.15,339.67 36.41,339.68 36.61,339.84 37.14,339.68 37.45,339.82 37.52,340.11 38,340.2 38.23,340.4 38.23,340.77 38.43,341.32 38.74,341.59 38.77,341.76 38.69,342.16 38.82,342.47 38.81,343.53 38.52,343.97 38.61,344.29 39.35,344.52 39.46,344.71 39.38,344.89 39.02,345.05 38.97,345.24 39.18,345.6 39.04,346.16 38.92,346.33 38.95,346.56 39.27,346.85 39.77,348.19 40.41,348.5 40.59,349.18 41.08,349.72 41.23,350.09 42.02,350.53 43.04,351.48 43.62,352.11 43.99,352.36 44.38,352.29 44.65,352.94 44.46,353.25 44.67,353.58 45.2,353.76 45.29,354.36 45.57,354.61 45.56,355.07 45.9,355.37 45.43,356.39 45.75,357.1 45.63,357.73 45.77,358.58 45.57,359.12 46.34,360.28 46.44,361.14 46.2,361.64 46.19,361.87 45.57,362.33 45.51,362.74 44.77,363.04 44.68,363.33 44.01,363.97 43.92,364.66 43.72,365.08 43.32,365.46 43,366.11 42.71,366.34 43.11,367.3 43.6,367.4 43.96,367.89 44.12,368.37 43.73,368.92 43.92,369.4 43.9,369.92 44.26,370.12 44.38,370.49 45.51,370.96 46.09,370.79 46.32,371.24 46.98,371.3 47.28,371.43 47.66,371.3 47.99,371.49 48.55,371.41 48.73,371.7 49.11,371.76 49.62,372.73 50.1,372.56 51.03,373.03 51.19,373.47 51.43,373.55 51.57,373.88 52.41,374.6 53.15,374.42 53.69,375.11 54.79,374.73 55.53,375.4 56.17,375.19 57.28,375.42 57.46,376.37 59,376.52 59.57,377.54 59.53,378.08 60.13,378.89 60.22,379.41 60.77,379.89 60.48,380.98 60,380.76 59.69,381.1 60.24,381.69 60.07,382.02 60.28,382.71 60.1,383.21 59.67,383.4 60.35,384.29 60.41,384.86 60.01,384.81 59.67,385.07 60.02,385.18 60.21,385.62 60.13,386.12 60.44,386.63 60.38,386.8 60.46,386.93 60.81,387 61.08,387.33 61.31,387.35 61.25,387.82 60.99,388 61.04,388.31 
				60.77,388.59
				
				
				50.39,443.73
				605.27,651.77
				648.22,99.27
				598.39,53.6
				590.71,53.99 588.43,54.62 586.6,54.36 583.22,54.67 580.31,55.06 574.33,55.3 573.79,55.47 572.95,55.21 566.67,55.9 566.56,55.64 565.91,55.88 565.87,56.11 565.23,56.01 560.57,56.1 560.21,55.99 559.75,56.16 559.45,55.77 556.44,56.36 556.3,56.51 556.03,56.38 554.43,56.58 552.3,56.6 550.65,56.48 547.83,56.65 545.34,56.58 543.63,56.67 541.9,56.99 537.96,56.88 537.08,57.01 534.02,57.05 533.7,57.13 530.4,57.13 530.1,57.11 526.41,57.31 519.92,57.71 518.85,57.57 514.62,57.8 514.4,58.16 513.25,58.09 513.21,57.83 511.5,57.77 510.5,57.94 509.26,57.97 507.35,58.39 505.85,58.62 505.14,57.7 503.62,57.69 502.24,57.55 501.22,57.19 499.71,57.17 499.35,57.32 497.44,57.36 495.99,56.89 495.16,57.02 494.05,57.45 488.75,56.43 486.48,56.48 484.98,55.91 481.38,55.36 480.87,55.49 477.87,55.27 475.63,54.62 472.28,54.55 471.81,54.28 468.22,54.15 465.26,54.02 464.75,53.83 462.69,53.97 458.08,53.13 457.13,52.86 456.4,52.98 453.9,52.56 450.97,52.69 449.81,53.24 449.12,52.63 448.51,52.54 446.6,51.94 443.3,51.6 441.89,51.63 441.15,51.39 439.91,51.31 439.58,51.16 438.82,51.13 438.56,50.99 436.38,50.83 434.15,50.28 432.59,50.19 431.52,49.91 431.26,49.95 429.24,49.34 426.01,49 423.09,48.58 422.27,48.59 417.31,47.84 412.75,47.24 411.17,47 410.54,47.07 409.89,46.88 406.86,46.7 401.91,45.96 399.33,45.65 399.17,45.55 398.02,45.45 396.06,45.14 395.64,45.1 393.35,44.78 
				382.13,43.51 
				"/>
</svg>